<svg width="200" height="16" viewBox="0 0 200 16" fill="none" xmlns="http://www.w3.org/2000/svg">
<g clip-path="url(#clip0_209_1495)">
<path d="M177.554 7.57013V0.249512H180.323V4.90808H198.796V7.57013H177.554ZM177 10.8422V8.20791H199.6V10.8422H177ZM177.499 15.9722V11.4245H180.268V13.3102H199.849V15.9722H177.499Z" fill="#664732"/>
<path d="M154.003 15.4176V12.7555H163.973V11.064H154.529V0.499023H157.299V3.85431H173.251V0.499023H176.021V11.064H166.743V12.7555H176.602V15.4176H154.003ZM157.299 8.40196H173.251V6.51635H157.299V8.40196Z" fill="#664732"/>
<path d="M147.753 15.9722V15.6949H129.003V6.62732H142.823V3.21658H129.308V0.554537H145.593V9.28936H131.772V13.0329H147.753V0.249512H150.522V0.804104H153.236V3.43842H150.522V15.9722H147.753Z" fill="#664732"/>
<path d="M122.753 15.9722V0.249512H125.522V0.804104H128.43V3.43842H125.522V15.9722H122.753ZM104.003 15.6949V0.554537H106.772V6.48867H117.629V0.554537H120.399V15.6949H104.003ZM106.772 13.0329H117.629V9.15072H106.772V13.0329Z" fill="#664732"/>
<path d="M76.1968 12.0901C83.5638 12.0901 94.2266 11.7574 95.639 11.5078V11.2305L76.5292 11.4801V9.51126H98.4086V12.9497C97.4392 13.1993 81.9575 13.948 78.9663 13.8648V14.1144H98.6579V16H76.1968V12.0901ZM76.0029 8.92893V6.461H98.6025V8.92893H76.0029ZM76.0583 2.96707C76.0583 1.05373 78.1078 0 87.3027 0C96.4422 0 98.5471 1.05373 98.5471 2.96707C98.5471 4.90814 96.3868 5.96187 87.3027 5.96187C78.1632 5.96187 76.0583 4.90814 76.0583 2.96707ZM78.8279 2.96707C78.8279 3.16118 79.4372 3.4662 87.3027 3.4662C95.1682 3.4662 95.7775 3.16118 95.7775 2.96707C95.7775 2.80069 95.1682 2.49566 87.3027 2.49566C79.4372 2.49566 78.8279 2.80069 78.8279 2.96707Z" fill="#664732"/>
<path d="M53.0029 8.7625V6.29457H75.6025V8.7625H53.0029ZM53.1968 15.9999V12.0069C60.5638 12.0069 70.9496 11.6741 72.3621 11.3968V11.1472L53.5291 11.3691V9.40028H75.1316V12.8942C74.1623 13.1438 58.9575 13.8925 55.9663 13.8093V14.0589H75.6025V15.9999H53.1968ZM53.5568 2.91155V0.249512H74.7993V5.68451H72.0297V2.91155H53.5568Z" fill="#664732"/>
<path d="M25.2362 15.9723V10.2045H46.5063V15.9723H25.2362ZM24.71 9.67763V7.15424H47.3095V9.67763H24.71ZM24.7654 3.35528C24.7654 1.33102 26.9256 0 36.0097 0C45.0662 0 47.2541 1.33102 47.2541 3.35528C47.2541 5.49046 45.0385 6.73829 36.0097 6.73829C26.9533 6.73829 24.7654 5.49046 24.7654 3.35528ZM27.5349 3.35528C27.5349 3.66031 28.3935 4.07625 36.0097 4.07625C43.5983 4.07625 44.4846 3.66031 44.4846 3.35528C44.4846 3.10572 43.5983 2.66204 36.0097 2.66204C28.3935 2.66204 27.5349 3.10572 27.5349 3.35528ZM28.0057 13.4766H43.7645V12.7002H28.0057V13.4766Z" fill="#664732"/>
<path d="M19.9991 15.9722V0.249512H22.7686V15.9722H19.9991ZM0.00292969 8.04153C0.00292969 3.90982 2.57861 0.30497 8.92088 0.30497C15.2078 0.30497 17.8388 3.90982 17.8388 8.04153C17.8388 12.1732 15.2078 15.7504 8.92088 15.7504C2.60631 15.7504 0.00292969 12.1732 0.00292969 8.04153ZM2.77248 8.04153C2.77248 11.1472 4.21265 13.0883 8.92088 13.0883C13.6014 13.0883 15.0693 11.1472 15.0693 8.04153C15.0693 4.93581 13.6014 2.96701 8.92088 2.96701C4.21265 2.96701 2.77248 4.93581 2.77248 8.04153Z" fill="#664732"/>
</g>
<defs>
<clipPath id="clip0_209_1495">
<rect width="200" height="16" fill="white"/>
</clipPath>
</defs>
</svg>
