<svg width="20" height="20" viewBox="0 0 20 20" fill="none" xmlns="http://www.w3.org/2000/svg">
<path d="M9.64269 13.9024L5.66103 9.92078L6.57004 9.03086L9.00668 11.4675V2.85693H10.2787V11.4675L12.7153 9.03086L13.6243 9.92078L9.64269 13.9024ZM4.65321 17.1426C4.2124 17.1426 3.84115 16.9906 3.53946 16.6864C3.23776 16.3823 3.08691 16.01 3.08691 15.5695V14.0905H4.35893V15.5695C4.35893 15.6448 4.39032 15.7138 4.45311 15.7765C4.51573 15.8392 4.58471 15.8706 4.66005 15.8706H14.6253C14.7007 15.8706 14.7696 15.8392 14.8323 15.7765C14.8951 15.7138 14.9264 15.6448 14.9264 15.5695V14.0905H16.1985V15.5695C16.1985 16.01 16.0463 16.3823 15.742 16.6864C15.4377 16.9906 15.0651 17.1426 14.6243 17.1426H4.65321Z" fill="#1C1B1F"/>
</svg>
