<svg width="20" height="20" viewBox="0 0 20 20" fill="none" xmlns="http://www.w3.org/2000/svg">
<path d="M14.2969 13.5353C14.2969 14.7343 13.8805 15.7543 13.0476 16.5955C12.2146 17.4367 11.2015 17.8574 10.0081 17.8574C8.79268 17.8574 7.77125 17.4192 6.94381 16.543C6.11636 15.6669 5.70264 14.614 5.70264 13.3842V5.21145C5.70264 4.35911 5.99822 3.63463 6.58937 3.038C7.18038 2.44138 7.90206 2.14307 8.7544 2.14307C9.62114 2.14307 10.3465 2.45937 10.9304 3.09197C11.5144 3.72457 11.8064 4.48143 11.8064 5.36255V13.0338C11.8064 13.5341 11.6317 13.9616 11.2823 14.3165C10.933 14.6712 10.5083 14.8485 10.0081 14.8485C9.49565 14.8485 9.06509 14.6642 8.71641 14.2955C8.36773 13.9267 8.19339 13.4774 8.19339 12.9475V5.15188H9.31563V13.0338C9.31563 13.2278 9.38118 13.3917 9.51227 13.5256C9.64337 13.6594 9.80591 13.7263 9.99989 13.7263C10.1937 13.7263 10.3562 13.6594 10.4873 13.5256C10.6184 13.3917 10.6839 13.2278 10.6839 13.0338V5.20325C10.6894 4.66635 10.5034 4.20916 10.1259 3.8317C9.74849 3.45424 9.28994 3.26552 8.7503 3.26552C8.21052 3.26552 7.7547 3.46281 7.38286 3.85739C7.01101 4.25212 6.82509 4.71786 6.82509 5.25463V13.5353C6.83055 14.4209 7.14103 15.1719 7.7565 15.7884C8.37198 16.405 9.12251 16.7205 10.0081 16.7349C10.8937 16.7493 11.6456 16.4302 12.2638 15.7776C12.882 15.1251 13.1856 14.3417 13.1745 13.4273V5.15188H14.2969V13.5353Z" fill="#1C1B1F"/>
</svg>
