<svg width="24" height="24" viewBox="0 0 24 24" fill="none" xmlns="http://www.w3.org/2000/svg">
<path d="M18 16.7241C18 18.3264 17.4185 19.6896 16.2555 20.8137C15.0926 21.9379 13.6779 22.5 12.0116 22.5C10.3146 22.5 8.88836 21.9145 7.73302 20.7436C6.57767 19.5728 6 18.1657 6 16.5222V5.60048C6 4.46144 6.41271 3.49327 7.23813 2.69596C8.06334 1.89865 9.071 1.5 10.2611 1.5C11.4713 1.5 12.4841 1.92269 13.2995 2.76808C14.1148 3.61346 14.5225 4.6249 14.5225 5.8024V16.054C14.5225 16.7225 14.2786 17.2938 13.7907 17.7681C13.3031 18.2421 12.71 18.4791 12.0116 18.4791C11.2961 18.4791 10.6949 18.2328 10.2081 17.7401C9.72121 17.2472 9.47779 16.6467 9.47779 15.9387V5.52087H11.0447V16.054C11.0447 16.3133 11.1363 16.5323 11.3193 16.7112C11.5023 16.89 11.7293 16.9794 12.0002 16.9794C12.2708 16.9794 12.4977 16.89 12.6807 16.7112C12.8637 16.5323 12.9553 16.3133 12.9553 16.054V5.58952C12.9629 4.87202 12.7032 4.26106 12.1762 3.75663C11.6491 3.25221 11.0089 3 10.2554 3C9.5017 3 8.86525 3.26365 8.34605 3.79096C7.82685 4.31846 7.56725 4.94087 7.56725 5.65817V16.7241C7.57488 17.9076 8.00839 18.9112 8.86776 19.7351C9.72714 20.5591 10.7751 20.9808 12.0116 21C13.2481 21.0192 14.298 20.5928 15.1612 19.7207C16.0244 18.8488 16.4482 17.8018 16.4328 16.5799V5.52087H18V16.7241Z" fill="#4D3421"/>
</svg>
