<svg width="9" height="16" viewBox="0 0 9 16" fill="none" xmlns="http://www.w3.org/2000/svg">
<path d="M8.59429 11.3922C8.59429 12.5912 8.17783 13.6113 7.34492 14.4524C6.512 15.2937 5.49885 15.7143 4.30546 15.7143C3.09004 15.7143 2.06862 15.2762 1.24117 14.3999C0.413723 13.5239 0 12.4709 0 11.2411V3.06839C0 2.21605 0.295579 1.49156 0.886735 0.894938C1.47775 0.298313 2.19942 0 3.05177 0C3.9185 0 4.64385 0.316301 5.22781 0.948902C5.81177 1.5815 6.10375 2.33836 6.10375 3.21949V10.8908C6.10375 11.391 5.92905 11.8185 5.57965 12.1734C5.2304 12.5281 4.80567 12.7055 4.30546 12.7055C3.79301 12.7055 3.36245 12.5211 3.01378 12.1525C2.6651 11.7836 2.49076 11.3343 2.49076 10.8044V3.00881H3.61299V10.8908C3.61299 11.0848 3.67854 11.2487 3.80964 11.3825C3.94073 11.5163 4.10327 11.5832 4.29725 11.5832C4.49109 11.5832 4.65356 11.5163 4.78465 11.3825C4.91575 11.2487 4.9813 11.0848 4.9813 10.8908V3.06019C4.98677 2.52328 4.80077 2.0661 4.42331 1.68864C4.04585 1.31118 3.5873 1.12245 3.04767 1.12245C2.50788 1.12245 2.05207 1.31974 1.68022 1.71432C1.30837 2.10905 1.12245 2.5748 1.12245 3.11156V11.3922C1.12792 12.2778 1.43839 13.0288 2.05387 13.6453C2.66934 14.2619 3.41987 14.5774 4.30546 14.5918C5.19104 14.6062 5.94294 14.2871 6.56115 13.6345C7.17936 12.9821 7.48292 12.1986 7.47184 11.2843V3.00881H8.59429V11.3922Z" fill="#1C1B1F"/>
</svg>
