<svg width="143" height="24" viewBox="0 0 143 24" fill="none" xmlns="http://www.w3.org/2000/svg">
<g clip-path="url(#clip0_209_1452)">
<path d="M111.095 23.9999V14.1297H115.196V15.5631H138.899V14.1297H143V23.9999H111.095ZM109.659 6.96243C109.659 3.44025 113.391 0.655273 123.152 0.655273C132.912 0.655273 136.644 3.44025 136.644 6.96243C136.644 10.4437 132.994 13.2286 123.152 13.2286C113.309 13.2286 109.659 10.4437 109.659 6.96243ZM113.76 6.96243C113.76 8.23205 115.483 9.2969 123.152 9.2969C130.82 9.2969 132.543 8.23205 132.543 6.96243C132.543 5.65185 130.779 4.58701 123.152 4.58701C115.524 4.58701 113.76 5.65185 113.76 6.96243ZM115.196 20.3959H138.899V19.1672H115.196V20.3959ZM138.899 12.9419V0.77814H143V12.9419H138.899Z" fill="#664732"/>
<path d="M100.848 24.0001V0.77832H104.949V1.59743H109.255V5.48821H104.949V24.0001H100.848ZM73.043 5.16057V1.22883H98.0592V23.5906H93.9582V5.16057H73.043Z" fill="#664732"/>
<path d="M38.6951 24.0006V16.5057H42.7961V20.0688H70.601V24.0006H38.6951ZM37.1367 14.9084V10.9767H66.5V0.778757H70.601V19.2088H60.4715V15.7275H66.5V14.9084H53.2127V18.3077H49.1117V14.9084H37.1367ZM37.7929 5.12005C37.7929 2.37602 40.4585 0.410156 50.7521 0.410156C60.9636 0.410156 63.6703 2.37602 63.6703 5.12005C63.6703 7.94598 60.9226 9.87089 50.7521 9.87089C40.4585 9.87089 37.7929 7.94598 37.7929 5.12005ZM41.8939 5.12005C41.8939 5.5296 42.6731 5.93916 50.7521 5.93916C58.7901 5.93916 59.5693 5.48865 59.5693 5.12005C59.5693 4.7924 58.7491 4.34189 50.7521 4.34189C42.6731 4.34189 41.8939 4.7924 41.8939 5.12005Z" fill="#664732"/>
<path d="M0 24V20.0682H11.0317V17.3242C3.36283 16.9146 0.533133 14.703 0.533133 11.6723C0.533133 8.23207 3.97799 5.97951 13.5744 5.97951C23.1707 5.97951 26.4106 8.27302 26.4106 11.6723C26.4106 14.8259 23.5398 17.1194 15.1328 17.3242V20.0682H29.3633V0.737198H33.4643V24H0ZM1.10728 5.11944V1.43344H11.4418V0H15.5018V1.43344H25.8774V5.11944H1.10728ZM4.63415 11.6723C4.63415 12.942 5.78243 13.7611 13.5744 13.7611C21.2843 13.7611 22.3095 12.9829 22.3095 11.6723C22.3095 10.3208 21.2843 9.5836 13.5744 9.5836C5.78243 9.5836 4.63415 10.3618 4.63415 11.6723Z" fill="#664732"/>
</g>
<defs>
<clipPath id="clip0_209_1452">
<rect width="143" height="24.0001" fill="white"/>
</clipPath>
</defs>
</svg>
