<svg width="143" height="24" viewBox="0 0 143 24" fill="none" xmlns="http://www.w3.org/2000/svg">
<path d="M111.094 23.9999V14.1297H115.195V15.5631H138.899V14.1297H143V23.9999H111.094ZM109.659 6.96243C109.659 3.44025 113.391 0.655273 123.151 0.655273C132.911 0.655273 136.643 3.44025 136.643 6.96243C136.643 10.4437 132.993 13.2286 123.151 13.2286C113.309 13.2286 109.659 10.4437 109.659 6.96243ZM113.76 6.96243C113.76 8.23205 115.482 9.2969 123.151 9.2969C130.82 9.2969 132.542 8.23205 132.542 6.96243C132.542 5.65185 130.779 4.58701 123.151 4.58701C115.523 4.58701 113.76 5.65185 113.76 6.96243ZM115.195 20.3959H138.899V19.1672H115.195V20.3959ZM138.899 12.9419V0.77814H143V12.9419H138.899Z" fill="black"/>
<path d="M100.847 24.0001V0.77832H104.948V1.59743H109.254V5.48821H104.948V24.0001H100.847ZM73.0425 5.16057V1.22883H98.0587V23.5906H93.9577V5.16057H73.0425Z" fill="black"/>
<path d="M38.6949 24.0001V16.5052H42.7959V20.0683H70.6008V24.0001H38.6949ZM37.1365 14.9079V10.9762H66.4998V0.778269H70.6008V19.2083H60.4713V15.7271H66.4998V14.9079H53.2125V18.3073H49.1114V14.9079H37.1365ZM37.7926 5.11956C37.7926 2.37553 40.4583 0.409668 50.7519 0.409668C60.9634 0.409668 63.6701 2.37553 63.6701 5.11956C63.6701 7.94549 60.9224 9.8704 50.7519 9.8704C40.4583 9.8704 37.7926 7.94549 37.7926 5.11956ZM41.8937 5.11956C41.8937 5.52911 42.6728 5.93867 50.7519 5.93867C58.7898 5.93867 59.569 5.48816 59.569 5.11956C59.569 4.79191 58.7488 4.3414 50.7519 4.3414C42.6728 4.3414 41.8937 4.79191 41.8937 5.11956Z" fill="black"/>
<path d="M0 24V20.0682H11.0317V17.3242C3.36283 16.9146 0.533133 14.703 0.533133 11.6723C0.533133 8.23207 3.97799 5.97951 13.5744 5.97951C23.1707 5.97951 26.4106 8.27302 26.4106 11.6723C26.4106 14.8259 23.5398 17.1194 15.1328 17.3242V20.0682H29.3633V0.737198H33.4643V24H0ZM1.10728 5.11944V1.43344H11.4418V0H15.5018V1.43344H25.8774V5.11944H1.10728ZM4.63415 11.6723C4.63415 12.942 5.78243 13.7611 13.5744 13.7611C21.2843 13.7611 22.3095 12.9829 22.3095 11.6723C22.3095 10.3208 21.2843 9.5836 13.5744 9.5836C5.78243 9.5836 4.63415 10.3618 4.63415 11.6723Z" fill="black"/>
</svg>
