<svg width="108" height="24" viewBox="0 0 108 24" fill="none" xmlns="http://www.w3.org/2000/svg">
<path d="M86.9776 10.9053C94.6646 10.9053 96.5758 9.47368 96.5758 7.45263C96.5758 5.47368 94.6646 4.0421 86.9776 4.0421C79.2905 4.0421 77.4218 5.47368 77.4218 7.45263C77.4218 9.51579 79.2905 10.9053 86.9776 10.9053ZM73.1748 7.45263C73.1748 3.2 77.4643 0 86.9776 0C96.4908 0 100.823 3.2 100.823 7.45263C100.823 11.8316 96.4484 14.9474 86.9776 14.9474C77.5067 14.9474 73.1748 11.7895 73.1748 7.45263ZM75.5107 24V15.8316H79.7577V19.9579H108V24H75.5107ZM103.456 17.9368V0.126316H107.703V17.9368H103.456Z" fill="black"/>
<path d="M36.7996 23.1578V19.1157H71.4551V23.1578H36.7996ZM37.649 4.63146V0.589355H70.2235V17.0946H65.9765V4.63146H37.649Z" fill="black"/>
<path d="M1.14669 4.63146V0.589355H32.9143V10.6525H5.05393V12.6315H33.4664V16.6736H19.5362V19.1157H34.6555V23.1578H0V19.1157H15.2892V16.6736H0.806931V6.61041H28.6673V4.63146H1.14669Z" fill="black"/>
</svg>
