<svg width="48" height="16" viewBox="0 0 48 16" fill="none" xmlns="http://www.w3.org/2000/svg">
<path d="M25.864 15.9999V10.2222H47.1973V15.9999H25.864ZM25.3363 9.6944V7.16663H48.0028V9.6944H25.3363ZM25.3918 3.3611C25.3918 1.33333 27.5585 0 36.6695 0C45.7528 0 47.9473 1.33333 47.9473 3.3611C47.9473 5.49997 45.725 6.74997 36.6695 6.74997C27.5862 6.74997 25.3918 5.49997 25.3918 3.3611ZM28.1696 3.3611C28.1696 3.66665 29.0307 4.08331 36.6695 4.08331C44.2806 4.08331 45.1695 3.66665 45.1695 3.3611C45.1695 3.1111 44.2806 2.66665 36.6695 2.66665C29.0307 2.66665 28.1696 3.1111 28.1696 3.3611ZM28.6418 13.4999H44.4473V12.7222H28.6418V13.4999Z" fill="#262626"/>
<path d="M20.0555 16V0.250072H22.8332V16H20.0555ZM0 8.05559C0 3.91672 2.58332 0.305626 8.9444 0.305626C15.2499 0.305626 17.8888 3.91672 17.8888 8.05559C17.8888 12.1945 15.2499 15.7778 8.9444 15.7778C2.6111 15.7778 0 12.1945 0 8.05559ZM2.77777 8.05559C2.77777 11.1667 4.2222 13.1111 8.9444 13.1111C13.6388 13.1111 15.111 11.1667 15.111 8.05559C15.111 4.94449 13.6388 2.97228 8.9444 2.97228C4.2222 2.97228 2.77777 4.94449 2.77777 8.05559Z" fill="#262626"/>
</svg>
