<svg width="48" height="16" viewBox="0 0 48 16" fill="none" xmlns="http://www.w3.org/2000/svg">
<g clip-path="url(#clip0_209_1237)">
<path d="M25.8637 15.9999V10.2222H47.1969V15.9999H25.8637ZM25.3359 9.6944V7.16663H48.0025V9.6944H25.3359ZM25.3915 3.3611C25.3915 1.33333 27.5581 0 36.6692 0C45.7525 0 47.9469 1.33333 47.9469 3.3611C47.9469 5.49997 45.7247 6.74997 36.6692 6.74997C27.5859 6.74997 25.3915 5.49997 25.3915 3.3611ZM28.1693 3.3611C28.1693 3.66665 29.0304 4.08331 36.6692 4.08331C44.2803 4.08331 45.1692 3.66665 45.1692 3.3611C45.1692 3.1111 44.2803 2.66665 36.6692 2.66665C29.0304 2.66665 28.1693 3.1111 28.1693 3.3611ZM28.6415 13.4999H44.447V12.7222H28.6415V13.4999Z" fill="#664732"/>
<path d="M20.0555 16V0.250072H22.8332V16H20.0555ZM0 8.05559C0 3.91672 2.58332 0.305626 8.9444 0.305626C15.2499 0.305626 17.8888 3.91672 17.8888 8.05559C17.8888 12.1945 15.2499 15.7778 8.9444 15.7778C2.6111 15.7778 0 12.1945 0 8.05559ZM2.77777 8.05559C2.77777 11.1667 4.2222 13.1111 8.9444 13.1111C13.6388 13.1111 15.111 11.1667 15.111 8.05559C15.111 4.94449 13.6388 2.97228 8.9444 2.97228C4.2222 2.97228 2.77777 4.94449 2.77777 8.05559Z" fill="#664732"/>
</g>
<defs>
<clipPath id="clip0_209_1237">
<rect width="48.0027" height="16" fill="white"/>
</clipPath>
</defs>
</svg>
