<svg width="220" height="74" viewBox="0 0 220 74" fill="none" xmlns="http://www.w3.org/2000/svg">
<g clip-path="url(#clip0_209_1427)">
<path d="M118.537 73.3288V46.849H216.309V73.3288H118.537ZM116.118 44.4301V32.8452H220.001V44.4301H116.118ZM116.373 15.4041C116.373 6.11073 126.303 0 168.059 0C209.689 0 219.746 6.11073 219.746 15.4041C219.746 25.2068 209.561 30.9356 168.059 30.9356C126.43 30.9356 116.373 25.2068 116.373 15.4041ZM129.103 15.4041C129.103 16.8045 133.05 18.7141 168.059 18.7141C202.941 18.7141 207.015 16.8045 207.015 15.4041C207.015 14.2584 202.941 12.2215 168.059 12.2215C133.05 12.2215 129.103 14.2584 129.103 15.4041ZM131.268 61.8712H203.705V58.3066H131.268V61.8712Z" fill="#664732"/>
<path d="M91.9156 73.329V1.146H104.646V73.329H91.9156ZM0 36.9192C0 17.9505 11.8395 1.4006 40.9928 1.4006C69.8915 1.4006 81.9857 17.9505 81.9857 36.9192C81.9857 55.888 69.8915 72.3106 40.9928 72.3106C11.9669 72.3106 0 55.888 0 36.9192ZM12.7307 36.9192C12.7307 51.1776 19.3507 60.0891 40.9928 60.0891C62.5077 60.0891 69.255 51.1776 69.255 36.9192C69.255 22.6609 62.5077 13.6221 40.9928 13.6221C19.3507 13.6221 12.7307 22.6609 12.7307 36.9192Z" fill="#664732"/>
</g>
<defs>
<clipPath id="clip0_209_1427">
<rect width="220" height="73.3294" fill="white"/>
</clipPath>
</defs>
</svg>
