<svg width="221" height="74" viewBox="0 0 221 74" fill="none" xmlns="http://www.w3.org/2000/svg">
<path d="M119.294 73.5033V46.9604H217.299V73.5033H119.294ZM116.87 44.5358V32.9233H221V44.5358H116.87ZM117.125 15.4408C117.125 6.12527 127.079 0 168.935 0C210.664 0 220.745 6.12527 220.745 15.4408C220.745 25.2667 210.536 31.0092 168.935 31.0092C127.206 31.0092 117.125 25.2667 117.125 15.4408ZM129.886 15.4408C129.886 16.8445 133.842 18.7586 168.935 18.7586C203.9 18.7586 207.984 16.8445 207.984 15.4408C207.984 14.2923 203.9 12.2505 168.935 12.2505C133.842 12.2505 129.886 14.2923 129.886 15.4408ZM132.056 62.0184H204.666V58.4453H132.056V62.0184Z" fill="#262626"/>
<path d="M92.1348 73.5042V1.14941H104.896V73.5042H92.1348ZM0 37.0078C0 17.9939 11.8678 1.40463 41.0906 1.40463C70.0582 1.40463 82.1812 17.9939 82.1812 37.0078C82.1812 56.0216 70.0582 72.4833 41.0906 72.4833C11.9954 72.4833 0 56.0216 0 37.0078ZM12.7611 37.0078C12.7611 51.3001 19.3968 60.2327 41.0906 60.2327C62.6568 60.2327 69.4201 51.3001 69.4201 37.0078C69.4201 22.7155 62.6568 13.6552 41.0906 13.6552C19.3968 13.6552 12.7611 22.7155 12.7611 37.0078Z" fill="#262626"/>
</svg>
