<svg width="170" height="16" viewBox="0 0 170 16" fill="none" xmlns="http://www.w3.org/2000/svg">
<path d="M148.176 7.39288V0.269775H150.887V4.80266H168.97V7.39288H148.176ZM147.633 10.5767V8.01345H169.756V10.5767H147.633ZM148.121 15.5683V11.1433H150.832V12.978H170V15.5683H148.121Z" fill="black"/>
<path d="M131.504 12.8433C136.113 12.8433 136.926 11.872 136.926 10.0372C136.926 8.17549 136.14 7.23114 131.504 7.23114C126.841 7.23114 125.973 8.20247 125.973 10.0372C125.973 11.872 126.841 12.8433 131.504 12.8433ZM123.262 10.0372C123.262 7.12321 125.322 4.69488 131.504 4.69488C137.685 4.69488 139.637 7.1502 139.637 10.0372C139.637 12.8972 137.685 15.3795 131.504 15.3795C125.322 15.3795 123.262 12.9242 123.262 10.0372ZM123.669 3.99337V1.43013H130.094V0.0810547H132.778V1.43013H139.203V3.99337H123.669ZM141.535 15.5684V0.269925H144.246V0.809554H147.093V3.37279H144.246V15.5684H141.535Z" fill="black"/>
<path d="M110.925 13.4098C117.893 13.4098 118.923 12.9511 118.923 12.5734C118.923 12.1686 117.893 11.71 110.925 11.71C103.958 11.71 102.9 12.1686 102.9 12.5734C102.9 12.9511 103.958 13.4098 110.925 13.4098ZM99.5928 6.52951C103.714 5.72007 105.883 4.82968 106.804 4.18212V3.42664H100.081V1.02529H106.831V0.75548V0H109.543V1.02529H116.266V2.07757H118.923V0.269814H121.634V12.5734C121.634 14.7589 119.248 16 110.925 16C102.575 16 100.189 14.7319 100.189 12.5734C100.189 10.3609 102.602 9.11973 110.925 9.11973C114.694 9.11973 117.269 9.36256 118.923 9.87521V4.64081H114.938V3.42664H109.543V4.10118C110.546 4.61383 112.769 5.39629 116.781 6.17875L116.293 8.66105C112.416 7.8516 109.922 7.06914 108.323 6.20573C106.967 7.1231 104.337 8.1484 100.081 9.0118L99.5928 6.52951Z" fill="black"/>
<path d="M77.1858 15.0288V12.4386H83.0418V10.8467C78.7311 10.0372 77.24 8.04058 77.24 5.6932C77.24 2.64429 79.8969 0.0810547 88.2471 0.0810547C96.5431 0.0810547 99.2542 2.64429 99.2542 5.6932C99.2542 8.12153 97.6546 10.1182 93.1542 10.9006V12.4386H99.3084V15.0288H77.1858ZM79.9511 5.6932C79.9511 7.50095 81.2796 8.68814 88.2471 8.68814C95.1875 8.68814 96.5431 7.50095 96.5431 5.6932C96.5431 3.9394 95.1875 2.67127 88.2471 2.67127C81.3067 2.67127 79.9511 3.9394 79.9511 5.6932ZM85.7529 12.4386H90.4431V11.2244C89.7653 11.2514 89.0333 11.2784 88.2471 11.2784C87.3524 11.2784 86.512 11.2514 85.7529 11.1974V12.4386Z" fill="black"/>
<path d="M47.8668 11.7908C55.0783 11.7908 65.5161 11.467 66.8987 11.2242V10.9543L48.1921 11.1972V9.2815H69.6098V12.6272C68.6609 12.87 53.5059 13.5985 50.5779 13.5176V13.7604H69.8538V15.5952H47.8668V11.7908ZM47.677 8.71488V6.31353H69.7996V8.71488H47.677ZM47.7312 2.91387C47.7312 1.05215 49.7374 0.0268555 58.7383 0.0268555C67.6849 0.0268555 69.7454 1.05215 69.7454 2.91387C69.7454 4.80257 67.6307 5.82787 58.7383 5.82787C49.7917 5.82787 47.7312 4.80257 47.7312 2.91387ZM50.4423 2.91387C50.4423 3.10274 51.0388 3.39954 58.7383 3.39954C66.4378 3.39954 67.0343 3.10274 67.0343 2.91387C67.0343 2.75198 66.4378 2.45519 58.7383 2.45519C51.0388 2.45519 50.4423 2.75198 50.4423 2.91387Z" fill="black"/>
<path d="M24.7011 15.5682V9.95603H45.5224V15.5682H24.7011ZM24.186 9.44338V6.98807H46.3086V9.44338H24.186ZM24.2403 3.29161C24.2403 1.32196 26.3549 0.0268555 35.2473 0.0268555C44.1126 0.0268555 46.2544 1.32196 46.2544 3.29161C46.2544 5.36918 44.0855 6.58335 35.2473 6.58335C26.382 6.58335 24.2403 5.36918 24.2403 3.29161ZM26.9514 3.29161C26.9514 3.58841 27.7918 3.99313 35.2473 3.99313C42.6758 3.99313 43.5433 3.58841 43.5433 3.29161C43.5433 3.04878 42.6758 2.61707 35.2473 2.61707C27.7918 2.61707 26.9514 3.04878 26.9514 3.29161ZM27.4122 13.1398H42.8384V12.3844H27.4122V13.1398Z" fill="black"/>
<path d="M19.5742 15.5683V0.269775H22.2853V15.5683H19.5742ZM0 7.85156C0 3.83133 2.52133 0.323737 8.72975 0.323737C14.884 0.323737 17.4595 3.83133 17.4595 7.85156C17.4595 11.8718 14.884 15.3524 8.72975 15.3524C2.54844 15.3524 0 11.8718 0 7.85156ZM2.7111 7.85156C2.7111 10.8735 4.12088 12.7622 8.72975 12.7622C13.3115 12.7622 14.7484 10.8735 14.7484 7.85156C14.7484 4.82964 13.3115 2.91396 8.72975 2.91396C4.12088 2.91396 2.7111 4.82964 2.7111 7.85156Z" fill="black"/>
</svg>
