<svg width="198" height="16" viewBox="0 0 198 16" fill="none" xmlns="http://www.w3.org/2000/svg">
<g clip-path="url(#clip0_209_1342)">
<path d="M175.539 7.37829V0.243164H178.248V4.7837H196.318V7.37829H175.539ZM174.997 10.5675V7.99991H197.104V10.5675H174.997ZM175.485 15.5675V11.135H178.194V12.9729H197.348V15.5675H175.485Z" fill="#664732"/>
<path d="M159.236 12.8377C163.841 12.8377 164.654 11.8648 164.654 10.0269C164.654 8.16205 163.868 7.21611 159.236 7.21611C154.576 7.21611 153.709 8.18908 153.709 10.0269C153.709 11.8648 154.576 12.8377 159.236 12.8377ZM151 10.0269C151 7.108 153.059 4.67557 159.236 4.67557C165.413 4.67557 167.363 7.13503 167.363 10.0269C167.363 12.8918 165.413 15.3783 159.236 15.3783C153.059 15.3783 151 12.9188 151 10.0269ZM151.406 3.97287V1.4053H157.827V0.0539551H160.509V1.4053H166.93V3.97287H151.406ZM169.26 15.5675V0.243144H171.969V0.783684H174.813V3.35125H171.969V15.5675H169.26Z" fill="#664732"/>
<path d="M127.997 6.081C132.223 5.24316 134.255 3.86478 135.068 2.70262V0.54046H137.777L137.75 2.62154C138.59 3.56749 140.649 4.70262 144.794 5.54046L144.306 8.02694C140.432 7.24316 137.94 6.05397 136.504 4.86478C135.095 6.32424 132.521 7.75667 128.485 8.56748L127.997 6.081ZM128.322 12.5675C128.322 10.3513 130.733 9.10802 139.05 9.10802C142.816 9.10802 145.39 9.35126 147.042 9.86478V4.35127H143.06V1.7837H147.042V0.243164H149.752V12.5675C149.752 14.7567 147.367 15.9999 139.05 15.9999C130.706 15.9999 128.322 14.7296 128.322 12.5675ZM131.031 12.5675C131.031 12.9459 132.088 13.4053 139.05 13.4053C146.013 13.4053 147.042 12.9459 147.042 12.5675C147.042 12.1621 146.013 11.7026 139.05 11.7026C132.088 11.7026 131.031 12.1621 131.031 12.5675Z" fill="#664732"/>
<path d="M104.458 2.97289V0.54046H120.469V2.97289H113.804V3.89181C114.779 4.4864 116.947 5.32424 120.956 6.21613L120.415 8.64856C116.405 7.7837 113.913 6.86478 112.531 6.02694C111.176 7.05397 108.63 8.13505 104.539 8.99991L103.997 6.56748C108.115 5.67559 110.228 4.70262 111.122 3.97289V2.97289H104.458ZM104.945 12.7837V10.1891H122.799V0.243164H125.508V0.783704H128.163V3.35127H125.508V11.4053H125.481V15.5675H122.771V12.7837H104.945Z" fill="#664732"/>
<path d="M76.1867 11.7838C83.3931 11.7838 93.8233 11.4594 95.2049 11.2162V10.9459L76.5118 11.1892V9.27026H97.9141V12.6216C96.9659 12.8649 81.8217 13.5946 78.8959 13.5135V13.7567H98.1579V15.5946H76.1867V11.7838ZM75.9971 8.70269V6.29729H98.1037V8.70269H75.9971ZM76.0513 2.89189C76.0513 1.02703 78.056 0 87.0504 0C95.9906 0 98.0496 1.02703 98.0496 2.89189C98.0496 4.78378 95.9364 5.81081 87.0504 5.81081C78.1102 5.81081 76.0513 4.78378 76.0513 2.89189ZM78.7604 2.89189C78.7604 3.08108 79.3564 3.37838 87.0504 3.37838C94.7444 3.37838 95.3404 3.08108 95.3404 2.89189C95.3404 2.72973 94.7444 2.43243 87.0504 2.43243C79.3564 2.43243 78.7604 2.72973 78.7604 2.89189Z" fill="#664732"/>
<path d="M52.9971 8.54045V6.13505H75.1037V8.54045H52.9971ZM53.1867 15.5945V11.7026C60.393 11.7026 70.5524 11.3783 71.934 11.108V10.8648L53.5118 11.081V9.16207H74.6432V12.5675C73.695 12.8107 58.8217 13.5404 55.8959 13.4594V13.7026H75.1037V15.5945H53.1867ZM53.5389 2.83776V0.243164H74.3181V5.54046H71.6089V2.83776H53.5389Z" fill="#664732"/>
<path d="M24.6827 15.5676V9.94594H45.489V15.5676H24.6827ZM24.168 9.43242V6.97297H46.2746V9.43242H24.168ZM24.2222 3.27027C24.2222 1.2973 26.3353 0 35.2213 0C44.0802 0 46.2204 1.2973 46.2204 3.27027C46.2204 5.35135 44.0531 6.56756 35.2213 6.56756C26.3624 6.56756 24.2222 5.35135 24.2222 3.27027ZM26.9313 3.27027C26.9313 3.56756 27.7711 3.97297 35.2213 3.97297C42.6444 3.97297 43.5113 3.56756 43.5113 3.27027C43.5113 3.02702 42.6444 2.59459 35.2213 2.59459C27.7711 2.59459 26.9313 3.02702 26.9313 3.27027ZM27.3919 13.1351H42.8069V12.3784H27.3919V13.1351Z" fill="#664732"/>
<path d="M19.5601 15.5675V0.243164H22.2692V15.5675H19.5601ZM0 7.83775C0 3.81073 2.51951 0.297217 8.72346 0.297217C14.8732 0.297217 17.4469 3.81073 17.4469 7.83775C17.4469 11.8648 14.8732 15.3513 8.72346 15.3513C2.5466 15.3513 0 11.8648 0 7.83775ZM2.70915 7.83775C2.70915 10.8648 4.11791 12.7567 8.72346 12.7567C13.3019 12.7567 14.7378 10.8648 14.7378 7.83775C14.7378 4.81073 13.3019 2.89181 8.72346 2.89181C4.11791 2.89181 2.70915 4.81073 2.70915 7.83775Z" fill="#664732"/>
</g>
<defs>
<clipPath id="clip0_209_1342">
<rect width="198" height="16" fill="white"/>
</clipPath>
</defs>
</svg>
