<svg width="174" height="16" viewBox="0 0 174 16" fill="none" xmlns="http://www.w3.org/2000/svg">
<path d="M151.738 7.57019V0.249565H154.504V4.90814H172.949V7.57019H151.738ZM151.185 10.8423V8.20797H173.751V10.8423H151.185ZM151.683 15.9723V11.4246H154.448V13.3102H174V15.9723H151.683Z" fill="#262626"/>
<path d="M146.484 15.9723V15.695H127.236V6.71057H140.483V3.21664H127.541V0.55459H143.248V9.37261H130.002V13.0329H146.484V0.249565H149.249V15.9723H146.484Z" fill="#262626"/>
<path d="M101.743 15.695V0.55459H117.644V3.21664H104.508V13.0329H118.252V15.695H101.743ZM120.464 15.9723V0.249565H123.23V0.804158H126.134V3.43847H123.23V15.9723H120.464Z" fill="#262626"/>
<path d="M97.316 15.9723V0.249565H100.081V15.9723H97.316ZM78.041 3.21664V0.55459H95.2143V15.695H92.4489V3.21664H78.041Z" fill="#262626"/>
<path d="M48.8261 12.0901C56.1821 12.0901 66.829 11.7574 68.2393 11.5078V11.2305L49.1579 11.4801V9.51127H71.0047V12.9497C70.0369 13.1993 54.5782 13.948 51.5915 13.8648V14.1144H71.2536V16H48.8261V12.0901ZM48.6325 8.92894V6.46101H71.1983V8.92894H48.6325ZM48.6878 2.96707C48.6878 1.05373 50.7342 0 59.9154 0C69.0413 0 71.143 1.05373 71.143 2.96707C71.143 4.90815 68.986 5.96187 59.9154 5.96187C50.7895 5.96187 48.6878 4.90815 48.6878 2.96707ZM51.4532 2.96707C51.4532 3.16118 52.0616 3.4662 59.9154 3.4662C67.7692 3.4662 68.3776 3.16118 68.3776 2.96707C68.3776 2.80069 67.7692 2.49567 59.9154 2.49567C52.0616 2.49567 51.4532 2.80069 51.4532 2.96707Z" fill="#262626"/>
<path d="M25.196 15.9723V10.2045H46.4344V15.9723H25.196ZM24.6706 9.67764V7.15425H47.2364V9.67764H24.6706ZM24.7259 3.35529C24.7259 1.33102 26.8829 0 35.9535 0C44.9964 0 47.1811 1.33102 47.1811 3.35529C47.1811 5.49047 44.9688 6.7383 35.9535 6.7383C26.9106 6.7383 24.7259 5.49047 24.7259 3.35529ZM27.4913 3.35529C27.4913 3.66031 28.3486 4.07626 35.9535 4.07626C43.5308 4.07626 44.4157 3.66031 44.4157 3.35529C44.4157 3.10572 43.5308 2.66205 35.9535 2.66205C28.3486 2.66205 27.4913 3.10572 27.4913 3.35529ZM27.9614 13.4766H43.6967V12.7002H27.9614V13.4766Z" fill="#262626"/>
<path d="M19.9663 15.9723V0.249565H22.7318V15.9723H19.9663ZM0 8.04159C0 3.90988 2.57184 0.305023 8.90465 0.305023C15.1822 0.305023 17.8093 3.90988 17.8093 8.04159C17.8093 12.1733 15.1822 15.7504 8.90465 15.7504C2.59949 15.7504 0 12.1733 0 8.04159ZM2.76542 8.04159C2.76542 11.1473 4.20344 13.0884 8.90465 13.0884C13.5782 13.0884 15.0439 11.1473 15.0439 8.04159C15.0439 4.93587 13.5782 2.96707 8.90465 2.96707C4.20344 2.96707 2.76542 4.93587 2.76542 8.04159Z" fill="#262626"/>
</svg>
