<svg width="205" height="16" viewBox="0 0 205 16" fill="none" xmlns="http://www.w3.org/2000/svg">
<path d="M182.705 7.57013V0.249512H185.475V4.90808H203.948V7.57013H182.705ZM182.151 10.8422V8.20791H204.751V10.8422H182.151ZM182.65 15.9722V11.4245H185.419V13.3102H205V15.9722H182.65Z" fill="black"/>
<path d="M158.153 15.4176V12.7555H168.123V11.064H158.679V0.499023H161.449V3.85431H177.401V0.499023H180.171V11.064H170.893V12.7555H180.752V15.4176H158.153ZM161.449 8.40196H177.401V6.51635H161.449V8.40196Z" fill="black"/>
<path d="M152.114 15.9722V15.6949H133.365V6.62732H147.185V3.21658H133.669V0.554537H149.954V9.28936H136.134V13.0329H152.114V0.249512H154.884V0.804104H157.598V3.43842H154.884V15.9722H152.114Z" fill="black"/>
<path d="M127.413 15.9722V0.249512H130.183V0.804104H133.091V3.43842H130.183V15.9722H127.413ZM108.664 15.6949V0.554537H111.433V6.48867H122.29V0.554537H125.059V15.6949H108.664ZM111.433 13.0329H122.29V9.15072H111.433V13.0329Z" fill="black"/>
<path d="M78.9899 12.0901C86.3569 12.0901 97.0197 11.7574 98.4322 11.5078V11.2305L79.3223 11.4801V9.51126H101.202V12.9497C100.232 13.1993 84.7506 13.948 81.7595 13.8648V14.1144H101.451V16H78.9899V12.0901ZM78.7961 8.92893V6.461H101.396V8.92893H78.7961ZM78.8514 2.96707C78.8514 1.05373 80.9009 0 90.0958 0C99.2353 0 101.34 1.05373 101.34 2.96707C101.34 4.90814 99.1799 5.96187 90.0958 5.96187C80.9563 5.96187 78.8514 4.90814 78.8514 2.96707ZM81.621 2.96707C81.621 3.16118 82.2303 3.4662 90.0958 3.4662C97.9613 3.4662 98.5706 3.16118 98.5706 2.96707C98.5706 2.80069 97.9613 2.49566 90.0958 2.49566C82.2303 2.49566 81.621 2.80069 81.621 2.96707Z" fill="black"/>
<path d="M54.7982 8.7625V6.29457H77.3978V8.7625H54.7982ZM54.9921 15.9999V12.0069C62.3591 12.0069 72.7449 11.6741 74.1574 11.3968V11.1472L55.3245 11.3691V9.40028H76.927V12.8942C75.9576 13.1438 60.7528 13.8925 57.7617 13.8093V14.0589H77.3978V15.9999H54.9921ZM55.3522 2.91155V0.249512H76.5946V5.68451H73.8251V2.91155H55.3522Z" fill="black"/>
<path d="M25.2336 15.9723V10.2045H46.5037V15.9723H25.2336ZM24.7074 9.67763V7.15424H47.3069V9.67763H24.7074ZM24.7628 3.35528C24.7628 1.33102 26.923 0 36.0071 0C45.0636 0 47.2515 1.33102 47.2515 3.35528C47.2515 5.49046 45.0359 6.73829 36.0071 6.73829C26.9507 6.73829 24.7628 5.49046 24.7628 3.35528ZM27.5323 3.35528C27.5323 3.66031 28.3909 4.07625 36.0071 4.07625C43.5957 4.07625 44.482 3.66031 44.482 3.35528C44.482 3.10572 43.5957 2.66204 36.0071 2.66204C28.3909 2.66204 27.5323 3.10572 27.5323 3.35528ZM28.0031 13.4766H43.7619V12.7002H28.0031V13.4766Z" fill="black"/>
<path d="M19.9962 15.9722V0.249512H22.7657V15.9722H19.9962ZM0 8.04153C0 3.90982 2.57568 0.30497 8.91795 0.30497C15.2048 0.30497 17.8359 3.90982 17.8359 8.04153C17.8359 12.1732 15.2048 15.7504 8.91795 15.7504C2.60338 15.7504 0 12.1732 0 8.04153ZM2.76955 8.04153C2.76955 11.1472 4.20972 13.0883 8.91795 13.0883C13.5985 13.0883 15.0664 11.1472 15.0664 8.04153C15.0664 4.93581 13.5985 2.96701 8.91795 2.96701C4.20972 2.96701 2.76955 4.93581 2.76955 8.04153Z" fill="black"/>
</svg>
