<svg width="172" height="16" viewBox="0 0 172 16" fill="none" xmlns="http://www.w3.org/2000/svg">
<path d="M149.919 7.39288V0.269775H152.662V4.80266H170.958V7.39288H149.919ZM149.37 10.5767V8.01345H171.753V10.5767H149.37ZM149.864 15.5683V11.1433H152.607V12.978H172V15.5683H149.864Z" fill="#664732"/>
<path d="M133.051 12.8433C137.714 12.8433 138.537 11.872 138.537 10.0372C138.537 8.17549 137.741 7.23114 133.051 7.23114C128.333 7.23114 127.455 8.20247 127.455 10.0372C127.455 11.872 128.333 12.8433 133.051 12.8433ZM124.712 10.0372C124.712 7.12321 126.797 4.69488 133.051 4.69488C139.305 4.69488 141.28 7.1502 141.28 10.0372C141.28 12.8972 139.305 15.3795 133.051 15.3795C126.797 15.3795 124.712 12.9242 124.712 10.0372ZM125.123 3.99337V1.43013H131.624V0.0810547H134.34V1.43013H140.841V3.99337H125.123ZM143.2 15.5684V0.269925H145.943V0.809554H148.823V3.37279H145.943V15.5684H143.2Z" fill="#664732"/>
<path d="M112.23 13.4098C119.28 13.4098 120.322 12.9511 120.322 12.5734C120.322 12.1686 119.28 11.71 112.23 11.71C105.181 11.71 104.111 12.1686 104.111 12.5734C104.111 12.9511 105.181 13.4098 112.23 13.4098ZM100.765 6.52951C104.934 5.72007 107.128 4.82968 108.061 4.18212V3.42664H101.258V1.02529H108.088V0.75548V0H110.831V1.02529H117.634V2.07757H120.322V0.269814H123.065V12.5734C123.065 14.7589 120.651 16 112.23 16C103.782 16 101.368 14.7319 101.368 12.5734C101.368 10.3609 103.809 9.11973 112.23 9.11973C116.043 9.11973 118.649 9.36256 120.322 9.87521V4.64081H116.29V3.42664H110.831V4.10118C111.846 4.61383 114.096 5.39629 118.155 6.17875L117.662 8.66105C113.739 7.8516 111.215 7.06914 109.597 6.20573C108.226 7.1231 105.565 8.1484 101.258 9.0118L100.765 6.52951Z" fill="#664732"/>
<path d="M78.0938 15.0288V12.4386H84.0186V10.8467C79.6573 10.0372 78.1486 8.04058 78.1486 5.6932C78.1486 2.64429 80.8367 0.0810547 89.2852 0.0810547C97.6788 0.0810547 100.422 2.64429 100.422 5.6932C100.422 8.12153 98.8034 10.1182 94.25 10.9006V12.4386H100.477V15.0288H78.0938ZM80.8916 5.6932C80.8916 7.50095 82.2357 8.68814 89.2852 8.68814C96.3073 8.68814 97.6788 7.50095 97.6788 5.6932C97.6788 3.9394 96.3073 2.67127 89.2852 2.67127C82.2631 2.67127 80.8916 3.9394 80.8916 5.6932ZM86.7616 12.4386H91.507V11.2244C90.8213 11.2514 90.0807 11.2784 89.2852 11.2784C88.38 11.2784 87.5297 11.2514 86.7616 11.1974V12.4386Z" fill="#664732"/>
<path d="M48.4303 11.7908C55.7267 11.7908 66.2872 11.467 67.6861 11.2242V10.9543L48.7594 11.1972V9.2815H70.4291V12.6272C69.4691 12.87 54.1357 13.5985 51.1733 13.5176V13.7604H70.676V15.5952H48.4303V11.7908ZM48.2383 8.71488V6.31353H70.6212V8.71488H48.2383ZM48.2931 2.91387C48.2931 1.05215 50.323 0.0268555 59.4297 0.0268555C68.4816 0.0268555 70.5663 1.05215 70.5663 2.91387C70.5663 4.80257 68.4268 5.82787 59.4297 5.82787C50.3778 5.82787 48.2931 4.80257 48.2931 2.91387ZM51.0361 2.91387C51.0361 3.10274 51.6396 3.39954 59.4297 3.39954C67.2198 3.39954 67.8233 3.10274 67.8233 2.91387C67.8233 2.75198 67.2198 2.45519 59.4297 2.45519C51.6396 2.45519 51.0361 2.75198 51.0361 2.91387Z" fill="#664732"/>
<path d="M24.9919 15.5682V9.95603H46.0581V15.5682H24.9919ZM24.4707 9.44338V6.98807H46.8536V9.44338H24.4707ZM24.5256 3.29161C24.5256 1.32196 26.6651 0.0268555 35.6621 0.0268555C44.6317 0.0268555 46.7987 1.32196 46.7987 3.29161C46.7987 5.36918 44.6043 6.58335 35.6621 6.58335C26.6925 6.58335 24.5256 5.36918 24.5256 3.29161ZM27.2686 3.29161C27.2686 3.58841 28.1189 3.99313 35.6621 3.99313C43.178 3.99313 44.0557 3.58841 44.0557 3.29161C44.0557 3.04878 43.178 2.61707 35.6621 2.61707C28.1189 2.61707 27.2686 3.04878 27.2686 3.29161ZM27.7349 13.1398H43.3425V12.3844H27.7349V13.1398Z" fill="#664732"/>
<path d="M19.8045 15.5683V0.269775H22.5475V15.5683H19.8045ZM0 7.85156C0 3.83133 2.55099 0.323737 8.83246 0.323737C15.0591 0.323737 17.6649 3.83133 17.6649 7.85156C17.6649 11.8718 15.0591 15.3524 8.83246 15.3524C2.57842 15.3524 0 11.8718 0 7.85156ZM2.743 7.85156C2.743 10.8735 4.16936 12.7622 8.83246 12.7622C13.4681 12.7622 14.9219 10.8735 14.9219 7.85156C14.9219 4.82964 13.4681 2.91396 8.83246 2.91396C4.16936 2.91396 2.743 4.82964 2.743 7.85156Z" fill="#664732"/>
</svg>
