<svg width="173" height="16" viewBox="0 0 173 16" fill="none" xmlns="http://www.w3.org/2000/svg">
<g clip-path="url(#clip0_209_1260)">
<path d="M150.555 7.57013V0.249512H153.328V4.90809H171.823V7.57013H150.555ZM150 10.8422V8.20792H172.627V10.8422H150ZM150.499 15.9722V11.4246H153.272V13.3102H172.877V15.9722H150.499Z" fill="#664732"/>
<path d="M145.883 15.9722V15.6949H126.583V6.71052H139.866V3.21658H126.888V0.554537H142.638V9.37256H129.356V13.0329H145.883V0.249512H148.656V15.9722H145.883Z" fill="#664732"/>
<path d="M101.021 15.6949V0.554537H116.965V3.21658H103.793V13.0329H117.575V15.6949H101.021ZM119.793 15.9722V0.249512H122.566V0.804104H125.478V3.43842H122.566V15.9722H119.793Z" fill="#664732"/>
<path d="M96.5815 15.9722V0.249512H99.3544V15.9722H96.5815ZM77.2539 3.21658V0.554537H94.474V15.6949H91.701V3.21658H77.2539Z" fill="#664732"/>
<path d="M48.9597 12.0901C56.3358 12.0901 67.0117 11.7574 68.4259 11.5078V11.2305L49.2925 11.4801V9.51127H71.1989V12.9497C70.2284 13.1993 54.7275 13.948 51.7327 13.8648V14.1144H71.4485V16H48.9597V12.0901ZM48.7656 8.92894V6.46101H71.393V8.92894H48.7656ZM48.8211 2.96707C48.8211 1.05373 50.8731 0 60.0793 0C69.2301 0 71.3375 1.05373 71.3375 2.96707C71.3375 4.90815 69.1746 5.96187 60.0793 5.96187C50.9285 5.96187 48.8211 4.90815 48.8211 2.96707ZM51.594 2.96707C51.594 3.16118 52.2041 3.4662 60.0793 3.4662C67.9545 3.4662 68.5646 3.16118 68.5646 2.96707C68.5646 2.80069 67.9545 2.49567 60.0793 2.49567C52.2041 2.49567 51.594 2.80069 51.594 2.96707Z" fill="#664732"/>
<path d="M25.2651 15.9723V10.2045H46.5615V15.9723H25.2651ZM24.7383 9.67764V7.15425H47.3657V9.67764H24.7383ZM24.7937 3.35529C24.7937 1.33102 26.9567 0 36.052 0C45.1196 0 47.3102 1.33102 47.3102 3.35529C47.3102 5.49047 45.0918 6.7383 36.052 6.7383C26.9844 6.7383 24.7937 5.49047 24.7937 3.35529ZM27.5667 3.35529C27.5667 3.66031 28.4263 4.07626 36.052 4.07626C43.6499 4.07626 44.5372 3.66031 44.5372 3.35529C44.5372 3.10572 43.6499 2.66205 36.052 2.66205C28.4263 2.66205 27.5667 3.10572 27.5667 3.35529ZM28.0381 13.4766H43.8163V12.7002H28.0381V13.4766Z" fill="#664732"/>
<path d="M20.0208 15.9723V0.249565H22.7938V15.9723H20.0208ZM0 8.04159C0 3.90988 2.57886 0.305023 8.92894 0.305023C15.2236 0.305023 17.8579 3.90988 17.8579 8.04159C17.8579 12.1733 15.2236 15.7504 8.92894 15.7504C2.60659 15.7504 0 12.1733 0 8.04159ZM2.77296 8.04159C2.77296 11.1473 4.2149 13.0884 8.92894 13.0884C13.6153 13.0884 15.0849 11.1473 15.0849 8.04159C15.0849 4.93587 13.6153 2.96707 8.92894 2.96707C4.2149 2.96707 2.77296 4.93587 2.77296 8.04159Z" fill="#664732"/>
</g>
<defs>
<clipPath id="clip0_209_1260">
<rect width="173" height="16" fill="white"/>
</clipPath>
</defs>
</svg>
