<svg width="200" height="16" viewBox="0 0 200 16" fill="none" xmlns="http://www.w3.org/2000/svg">
<path d="M178.191 7.37829V0.243164H180.901V4.7837H198.971V7.37829H178.191ZM177.65 10.5675V7.99991H199.756V10.5675H177.65ZM178.137 15.5675V11.135H180.846V12.9729H200V15.5675H178.137Z" fill="black"/>
<path d="M161.531 12.8377C166.137 12.8377 166.95 11.8648 166.95 10.0269C166.95 8.16205 166.164 7.21611 161.531 7.21611C156.872 7.21611 156.005 8.18908 156.005 10.0269C156.005 11.8648 156.872 12.8377 161.531 12.8377ZM153.296 10.0269C153.296 7.108 155.355 4.67557 161.531 4.67557C167.708 4.67557 169.659 7.13503 169.659 10.0269C169.659 12.8918 167.708 15.3783 161.531 15.3783C155.355 15.3783 153.296 12.9188 153.296 10.0269ZM153.702 3.97287V1.4053H160.123V0.0539551H162.805V1.4053H169.225V3.97287H153.702ZM171.555 15.5675V0.243144H174.264V0.783684H177.109V3.35125H174.264V15.5675H171.555Z" fill="black"/>
<path d="M129.908 6.081C134.134 5.24316 136.166 3.86478 136.979 2.70262V0.54046H139.688L139.661 2.62154C140.501 3.56749 142.56 4.70262 146.705 5.54046L146.217 8.02694C142.343 7.24316 139.85 6.05397 138.415 4.86478C137.006 6.32424 134.432 7.75667 130.396 8.56748L129.908 6.081ZM130.233 12.5675C130.233 10.3513 132.644 9.10802 140.961 9.10802C144.727 9.10802 147.301 9.35126 148.953 9.86478V4.35127H144.971V1.7837H148.953V0.243164H151.662V12.5675C151.662 14.7567 149.278 15.9999 140.961 15.9999C132.617 15.9999 130.233 14.7296 130.233 12.5675ZM132.942 12.5675C132.942 12.9459 133.999 13.4053 140.961 13.4053C147.924 13.4053 148.953 12.9459 148.953 12.5675C148.953 12.1621 147.924 11.7026 140.961 11.7026C133.999 11.7026 132.942 12.1621 132.942 12.5675Z" fill="black"/>
<path d="M106.755 2.97289V0.54046H122.766V2.97289H116.101V3.89181C117.076 4.4864 119.244 5.32424 123.253 6.21613L122.712 8.64856C118.702 7.7837 116.21 6.86478 114.828 6.02694C113.473 7.05397 110.927 8.13505 106.836 8.99991L106.294 6.56748C110.412 5.67559 112.525 4.70262 113.419 3.97289V2.97289H106.755ZM107.242 12.7837V10.1891H125.096V0.243164H127.805V0.783704H130.46V3.35127H127.805V11.4053H127.778V15.5675H125.068V12.7837H107.242Z" fill="black"/>
<path d="M77.2672 11.7838C84.4735 11.7838 94.9037 11.4594 96.2854 11.2162V10.9459L77.5923 11.1892V9.27026H98.9946V12.6216C98.0464 12.8649 82.9022 13.5946 79.9763 13.5135V13.7567H99.2384V15.5946H77.2672V11.7838ZM77.0775 8.70269V6.29729H99.1842V8.70269H77.0775ZM77.1317 2.89189C77.1317 1.02703 79.1365 0 88.1309 0C97.0711 0 99.13 1.02703 99.13 2.89189C99.13 4.78378 97.0169 5.81081 88.1309 5.81081C79.1907 5.81081 77.1317 4.78378 77.1317 2.89189ZM79.8409 2.89189C79.8409 3.08108 80.4369 3.37838 88.1309 3.37838C95.8249 3.37838 96.4209 3.08108 96.4209 2.89189C96.4209 2.72973 95.8249 2.43243 88.1309 2.43243C80.4369 2.43243 79.8409 2.72973 79.8409 2.89189Z" fill="black"/>
<path d="M53.6032 8.54045V6.13505H75.7099V8.54045H53.6032ZM53.7928 15.5945V11.7026C60.9992 11.7026 71.1585 11.3783 72.5402 11.108V10.8648L54.1179 11.081V9.16207H75.2493V12.5675C74.3011 12.8107 59.4279 13.5404 56.502 13.4594V13.7026H75.7099V15.5945H53.7928ZM54.145 2.83776V0.243164H74.9242V5.54046H72.2151V2.83776H54.145Z" fill="black"/>
<path d="M24.6831 15.5676V9.94594H45.4894V15.5676H24.6831ZM24.1684 9.43242V6.97297H46.275V9.43242H24.1684ZM24.2225 3.27027C24.2225 1.2973 26.3357 0 35.2217 0C44.0806 0 46.2208 1.2973 46.2208 3.27027C46.2208 5.35135 44.0535 6.56756 35.2217 6.56756C26.3628 6.56756 24.2225 5.35135 24.2225 3.27027ZM26.9317 3.27027C26.9317 3.56756 27.7715 3.97297 35.2217 3.97297C42.6448 3.97297 43.5117 3.56756 43.5117 3.27027C43.5117 3.02702 42.6448 2.59459 35.2217 2.59459C27.7715 2.59459 26.9317 3.02702 26.9317 3.27027ZM27.3923 13.1351H42.8073V12.3784H27.3923V13.1351Z" fill="black"/>
<path d="M19.5601 15.5675V0.243164H22.2692V15.5675H19.5601ZM0 7.83775C0 3.81073 2.51951 0.297217 8.72346 0.297217C14.8732 0.297217 17.4469 3.81073 17.4469 7.83775C17.4469 11.8648 14.8732 15.3513 8.72346 15.3513C2.5466 15.3513 0 11.8648 0 7.83775ZM2.70915 7.83775C2.70915 10.8648 4.11791 12.7567 8.72346 12.7567C13.3019 12.7567 14.7378 10.8648 14.7378 7.83775C14.7378 4.81073 13.3019 2.89181 8.72346 2.89181C4.11791 2.89181 2.70915 4.81073 2.70915 7.83775Z" fill="black"/>
</svg>
